<?xml version="1.0" encoding="UTF-8" standalone="no"?>
<!--
   ====================================================================
   Licensed to the Apache Software Foundation (ASF) under one or more
   contributor license agreements.  See the NOTICE file distributed with
   this work for additional information regarding copyright ownership.
   The ASF licenses this file to You under the Apache License, Version 2.0
   (the "License"); you may not use this file except in compliance with
   the License.  You may obtain a copy of the License at

       http://www.apache.org/licenses/LICENSE-2.0

   Unless required by applicable law or agreed to in writing, software
   distributed under the License is distributed on an "AS IS" BASIS,
   WITHOUT WARRANTIES OR CONDITIONS OF ANY KIND, either express or implied.
   See the License for the specific language governing permissions and
   limitations under the License.
   ====================================================================
-->

<svg
   xmlns:dc="http://purl.org/dc/elements/1.1/"
   xmlns:cc="http://creativecommons.org/ns#"
   xmlns:rdf="http://www.w3.org/1999/02/22-rdf-syntax-ns#"
   xmlns:svg="http://www.w3.org/2000/svg"
   xmlns="http://www.w3.org/2000/svg"
   xmlns:sodipodi="http://sodipodi.sourceforge.net/DTD/sodipodi-0.dtd"
   xmlns:inkscape="http://www.inkscape.org/namespaces/inkscape"
   xml:space="preserve"
   width="202.278mm"
   height="202.278mm"
   version="1.1"
   style="shape-rendering:geometricPrecision; text-rendering:geometricPrecision; image-rendering:optimizeQuality; fill-rule:evenodd; clip-rule:evenodd"
   viewBox="0 0 20435 20435"
   id="svg3850"
   sodipodi:docname="poweredby-poi.svg"
   inkscape:version="0.92.3 (2405546, 2018-03-11)"><metadata
   id="metadata3854"><rdf:RDF><cc:Work
       rdf:about=""><dc:format>image/svg+xml</dc:format><dc:type
         rdf:resource="http://purl.org/dc/dcmitype/StillImage" /></cc:Work></rdf:RDF></metadata><sodipodi:namedview
   pagecolor="#ffffff"
   bordercolor="#666666"
   borderopacity="1"
   objecttolerance="10"
   gridtolerance="10"
   guidetolerance="10"
   inkscape:pageopacity="0"
   inkscape:pageshadow="2"
   inkscape:window-width="3770"
   inkscape:window-height="2096"
   id="namedview3852"
   showgrid="false"
   inkscape:zoom="1.2347693"
   inkscape:cx="773.41149"
   inkscape:cy="555.47326"
   inkscape:window-x="70"
   inkscape:window-y="27"
   inkscape:window-maximized="1"
   inkscape:current-layer="svg3850" />
 <defs
   id="defs3795">
  <style
   type="text/css"
   id="style3790">
   <![CDATA[
    .fil0 {fill:none}
    .fil3 {fill:#2B2A29}
    .fil1 {fill:#555759}
    .fil2 {fill:white}
    .fil4 {fill:white;fill-rule:nonzero}
    .fnt0 {font-weight:normal;font-size:855.355px;font-family:'Arial Black'}
    .fnt1 {font-weight:normal;font-size:2316.58px;font-family:'Arial'}
   ]]>
  </style>
   <clipPath
   id="id0">
    <rect
   x="5749"
   y="3200"
   width="9073"
   height="13105"
   id="rect3792" />
   </clipPath>
 
  
  
  
  
  
  
  
  
  
  
  
  
  
  
  
  
  
  
  
  
 <filter
   inkscape:collect="always"
   style="color-interpolation-filters:sRGB"
   id="filter2260"
   x="-0.059999999"
   width="1.12"
   y="-0.059999999"
   height="1.12"><feGaussianBlur
     inkscape:collect="always"
     stdDeviation="0.044266516"
     id="feGaussianBlur2262" /></filter><filter
   inkscape:collect="always"
   style="color-interpolation-filters:sRGB"
   id="filter2276"
   x="-0.059999999"
   width="1.12"
   y="-0.059999999"
   height="1.12"><feGaussianBlur
     inkscape:collect="always"
     stdDeviation="0.035079125"
     id="feGaussianBlur2278" /></filter><filter
   inkscape:collect="always"
   style="color-interpolation-filters:sRGB"
   id="filter2292"
   x="-0.059999999"
   width="1.12"
   y="-0.059999999"
   height="1.12"><feGaussianBlur
     inkscape:collect="always"
     stdDeviation="0.0242213"
     id="feGaussianBlur2294" /></filter><filter
   inkscape:collect="always"
   style="color-interpolation-filters:sRGB"
   id="filter2324"
   x="-0.059999999"
   width="1.12"
   y="-0.059999999"
   height="1.12"><feGaussianBlur
     inkscape:collect="always"
     stdDeviation="0.016787887"
     id="feGaussianBlur2326" /></filter><filter
   inkscape:collect="always"
   style="color-interpolation-filters:sRGB"
   id="filter2308"
   x="-0.059999999"
   width="1.12"
   y="-0.059999999"
   height="1.12"><feGaussianBlur
     inkscape:collect="always"
     stdDeviation="0.012210993"
     id="feGaussianBlur2310" /></filter><filter
   inkscape:collect="always"
   style="color-interpolation-filters:sRGB"
   id="filter2340"
   x="-0.18000001"
   width="1.36"
   y="-0.18000001"
   height="1.36"><feGaussianBlur
     inkscape:collect="always"
     stdDeviation="0.05036366"
     id="feGaussianBlur2342" /></filter><filter
   inkscape:collect="always"
   style="color-interpolation-filters:sRGB"
   id="filter2248"
   x="-0.18000001"
   width="1.36"
   y="-0.18000001"
   height="1.36"><feGaussianBlur
     inkscape:collect="always"
     stdDeviation="0.032203086"
     id="feGaussianBlur2250" /></filter><filter
   inkscape:collect="always"
   style="color-interpolation-filters:sRGB"
   id="filter1940"
   x="-0.36000001"
   width="1.72"
   y="-0.36000001"
   height="1.72"><feGaussianBlur
     inkscape:collect="always"
     stdDeviation="0.064406177"
     id="feGaussianBlur1942" /></filter><filter
   inkscape:collect="always"
   style="color-interpolation-filters:sRGB"
   id="filter2260-7"
   x="-0.059999999"
   width="1.12"
   y="-0.059999999"
   height="1.12"><feGaussianBlur
     inkscape:collect="always"
     stdDeviation="0.044266516"
     id="feGaussianBlur2262-6" /></filter><filter
   inkscape:collect="always"
   style="color-interpolation-filters:sRGB"
   id="filter2276-3"
   x="-0.059999999"
   width="1.12"
   y="-0.059999999"
   height="1.12"><feGaussianBlur
     inkscape:collect="always"
     stdDeviation="0.035079125"
     id="feGaussianBlur2278-0" /></filter><filter
   inkscape:collect="always"
   style="color-interpolation-filters:sRGB"
   id="filter2276-3-0"
   x="-0.059999999"
   width="1.12"
   y="-0.059999999"
   height="1.12"><feGaussianBlur
     inkscape:collect="always"
     stdDeviation="0.035079125"
     id="feGaussianBlur2278-0-9" /></filter><filter
   inkscape:collect="always"
   style="color-interpolation-filters:sRGB"
   id="filter2276-3-0-5"
   x="-0.059999999"
   width="1.12"
   y="-0.059999999"
   height="1.12"><feGaussianBlur
     inkscape:collect="always"
     stdDeviation="0.035079125"
     id="feGaussianBlur2278-0-9-4" /></filter><filter
   inkscape:collect="always"
   style="color-interpolation-filters:sRGB"
   id="filter2276-3-0-5-5"
   x="-0.059999999"
   width="1.12"
   y="-0.059999999"
   height="1.12"><feGaussianBlur
     inkscape:collect="always"
     stdDeviation="0.035079125"
     id="feGaussianBlur2278-0-9-4-9" /></filter><filter
   inkscape:collect="always"
   style="color-interpolation-filters:sRGB"
   id="filter2276-3-0-5-5-6"
   x="-0.059999999"
   width="1.12"
   y="-0.059999999"
   height="1.12"><feGaussianBlur
     inkscape:collect="always"
     stdDeviation="0.035079125"
     id="feGaussianBlur2278-0-9-4-9-9" /></filter><filter
   inkscape:collect="always"
   style="color-interpolation-filters:sRGB"
   id="filter2276-3-0-5-5-2"
   x="-0.18000001"
   width="1.36"
   y="-0.18000001"
   height="1.36"><feGaussianBlur
     inkscape:collect="always"
     stdDeviation="0.10523737"
     id="feGaussianBlur2278-0-9-4-9-4" /></filter><filter
   inkscape:collect="always"
   style="color-interpolation-filters:sRGB"
   id="filter2276-3-0-5-5-7"
   x="-0.18000001"
   width="1.36"
   y="-0.18000001"
   height="1.36"><feGaussianBlur
     inkscape:collect="always"
     stdDeviation="0.10523737"
     id="feGaussianBlur2278-0-9-4-9-5" /></filter><filter
   inkscape:collect="always"
   style="color-interpolation-filters:sRGB"
   id="filter2276-3-0-5-5-8"
   x="-0.18000001"
   width="1.36"
   y="-0.18000001"
   height="1.36"><feGaussianBlur
     inkscape:collect="always"
     stdDeviation="0.10523737"
     id="feGaussianBlur2278-0-9-4-9-1" /></filter><filter
   inkscape:collect="always"
   style="color-interpolation-filters:sRGB"
   id="filter2276-3-0-5-5-6-8"
   x="-0.059999999"
   width="1.12"
   y="-0.059999999"
   height="1.12"><feGaussianBlur
     inkscape:collect="always"
     stdDeviation="0.035079125"
     id="feGaussianBlur2278-0-9-4-9-9-6" /></filter><filter
   inkscape:collect="always"
   style="color-interpolation-filters:sRGB"
   id="filter2276-3-0-5-5-9"
   x="-0.36000001"
   width="1.72"
   y="-0.36000001"
   height="1.72"><feGaussianBlur
     inkscape:collect="always"
     stdDeviation="0.21047475"
     id="feGaussianBlur2278-0-9-4-9-3" /></filter><filter
   inkscape:collect="always"
   style="color-interpolation-filters:sRGB"
   id="filter2531"
   x="-0.059999999"
   width="1.12"
   y="-0.059999999"
   height="1.12"><feGaussianBlur
     inkscape:collect="always"
     stdDeviation="0.035079125"
     id="feGaussianBlur2533" /></filter><filter
   inkscape:collect="always"
   style="color-interpolation-filters:sRGB"
   id="filter2531-0"
   x="-0.059999999"
   width="1.12"
   y="-0.059999999"
   height="1.12"><feGaussianBlur
     inkscape:collect="always"
     stdDeviation="0.035079125"
     id="feGaussianBlur2533-5" /></filter><filter
   inkscape:collect="always"
   style="color-interpolation-filters:sRGB"
   id="filter2531-0-1"
   x="-0.059999999"
   width="1.12"
   y="-0.059999999"
   height="1.12"><feGaussianBlur
     inkscape:collect="always"
     stdDeviation="0.035079125"
     id="feGaussianBlur2533-5-0" /></filter><filter
   inkscape:collect="always"
   style="color-interpolation-filters:sRGB"
   id="filter2531-0-5"
   x="-0.059999999"
   width="1.12"
   y="-0.059999999"
   height="1.12"><feGaussianBlur
     inkscape:collect="always"
     stdDeviation="0.035079125"
     id="feGaussianBlur2533-5-06" /></filter><filter
   inkscape:collect="always"
   style="color-interpolation-filters:sRGB"
   id="filter2531-0-5-6"
   x="-0.059999999"
   width="1.12"
   y="-0.059999999"
   height="1.12"><feGaussianBlur
     inkscape:collect="always"
     stdDeviation="0.035079125"
     id="feGaussianBlur2533-5-06-2" /></filter><filter
   inkscape:collect="always"
   style="color-interpolation-filters:sRGB"
   id="filter2531-0-8"
   x="-0.059999999"
   width="1.12"
   y="-0.059999999"
   height="1.12"><feGaussianBlur
     inkscape:collect="always"
     stdDeviation="0.035079125"
     id="feGaussianBlur2533-5-4" /></filter><filter
   inkscape:collect="always"
   style="color-interpolation-filters:sRGB"
   id="filter2248-2"
   x="-0.18000001"
   width="1.36"
   y="-0.18000001"
   height="1.36"><feGaussianBlur
     inkscape:collect="always"
     stdDeviation="0.032203086"
     id="feGaussianBlur2250-4" /></filter><filter
   inkscape:collect="always"
   style="color-interpolation-filters:sRGB"
   id="filter2248-2-6"
   x="-0.36000001"
   width="1.72"
   y="-0.36000001"
   height="1.72"><feGaussianBlur
     inkscape:collect="always"
     stdDeviation="0.064406173"
     id="feGaussianBlur2250-4-2" /></filter><filter
   inkscape:collect="always"
   style="color-interpolation-filters:sRGB"
   id="filter2248-2-6-9"
   x="-0.36000001"
   width="1.72"
   y="-0.36000001"
   height="1.72"><feGaussianBlur
     inkscape:collect="always"
     stdDeviation="0.064406173"
     id="feGaussianBlur2250-4-2-0" /></filter><filter
   inkscape:collect="always"
   style="color-interpolation-filters:sRGB"
   id="filter2248-2-6-9-1"
   x="-0.36000001"
   width="1.72"
   y="-0.36000001"
   height="1.72"><feGaussianBlur
     inkscape:collect="always"
     stdDeviation="0.064406173"
     id="feGaussianBlur2250-4-2-0-3" /></filter><filter
   inkscape:collect="always"
   style="color-interpolation-filters:sRGB"
   id="filter2248-2-6-9-1-1"
   x="-0.36000001"
   width="1.72"
   y="-0.36000001"
   height="1.72"><feGaussianBlur
     inkscape:collect="always"
     stdDeviation="0.064406173"
     id="feGaussianBlur2250-4-2-0-3-0" /></filter><filter
   inkscape:collect="always"
   style="color-interpolation-filters:sRGB"
   id="filter2248-2-6-9-1-4"
   x="-0.36000001"
   width="1.72"
   y="-0.36000001"
   height="1.72"><feGaussianBlur
     inkscape:collect="always"
     stdDeviation="0.064406173"
     id="feGaussianBlur2250-4-2-0-3-03" /></filter><filter
   inkscape:collect="always"
   style="color-interpolation-filters:sRGB"
   id="filter2248-2-6-9-1-19"
   x="-0.36000001"
   width="1.72"
   y="-0.36000001"
   height="1.72"><feGaussianBlur
     inkscape:collect="always"
     stdDeviation="0.064406173"
     id="feGaussianBlur2250-4-2-0-3-6" /></filter><filter
   inkscape:collect="always"
   style="color-interpolation-filters:sRGB"
   id="filter2248-2-6-9-1-3"
   x="-0.36000001"
   width="1.72"
   y="-0.36000001"
   height="1.72"><feGaussianBlur
     inkscape:collect="always"
     stdDeviation="0.064406173"
     id="feGaussianBlur2250-4-2-0-3-8" /></filter><filter
   inkscape:collect="always"
   style="color-interpolation-filters:sRGB"
   id="filter2248-2-6-9-1-5"
   x="-0.36000001"
   width="1.72"
   y="-0.36000001"
   height="1.72"><feGaussianBlur
     inkscape:collect="always"
     stdDeviation="0.064406173"
     id="feGaussianBlur2250-4-2-0-3-66" /></filter><filter
   inkscape:collect="always"
   style="color-interpolation-filters:sRGB"
   id="filter2248-2-6-9-1-0"
   x="-0.36000001"
   width="1.72"
   y="-0.36000001"
   height="1.72"><feGaussianBlur
     inkscape:collect="always"
     stdDeviation="0.064406173"
     id="feGaussianBlur2250-4-2-0-3-04" /></filter><filter
   inkscape:collect="always"
   style="color-interpolation-filters:sRGB"
   id="filter2248-2-6-9-1-2"
   x="-0.36000001"
   width="1.72"
   y="-0.36000001"
   height="1.72"><feGaussianBlur
     inkscape:collect="always"
     stdDeviation="0.064406173"
     id="feGaussianBlur2250-4-2-0-3-67" /></filter><filter
   inkscape:collect="always"
   style="color-interpolation-filters:sRGB"
   id="filter2248-2-6-9-1-6"
   x="-0.36000001"
   width="1.72"
   y="-0.36000001"
   height="1.72"><feGaussianBlur
     inkscape:collect="always"
     stdDeviation="0.064406173"
     id="feGaussianBlur2250-4-2-0-3-9" /></filter>
   
  </defs>
 <circle
   style="fill:none"
   r="6890"
   cy="10218"
   cx="10218"
   class="fil0"
   id="Ellipse_as" /><circle
   style="fill:none"
   r="6890"
   cy="10218"
   cx="10218"
   class="fil0"
   id="Ellipse_pb" /><circle
   style="fill:#555759"
   r="10218"
   cy="10218"
   cx="10218"
   class="fil1"
   id="Ellipse_1" /><circle
   style="fill:#ffffff"
   r="6890"
   cy="10218"
   cx="10218"
   class="fil2"
   id="Ellipse_2" /><circle
   style="fill:#ffffff"
   cy="6423.9541"
   cx="17773.666"
   r="614"
   transform="rotate(-0.65999872)"
   class="fil2"
   id="Ellipse_3" /><circle
   style="fill:#ffffff"
   cy="15882.426"
   cx="3662.6582"
   r="614"
   transform="rotate(-0.65999872)"
   class="fil2"
   id="Ellipse_4" /><path
   style="fill:#5993dc;fill-opacity:1;stroke-width:77.54569244"
   d="m 7349.9714,15624.847 v -310.178 h 736.697 c 603.143,0 736.696,-21.086 736.696,-116.316 0,-95.23 -133.553,-116.317 -736.696,-116.317 -736.574,0 -736.697,-0.03 -736.697,-196.322 v -196.322 l 911.178,21.847 911.177,21.847 v 465.267 465.266 l -717.31,22.296 c -567.567,17.642 -717.31,45.97 -717.31,135.703 0,69.27 -75.45,113.406 -193.867,113.406 -174.481,0 -193.868,-31.018 -193.868,-310.177 z m 2204.644,207.632 c -22.721,-59.208 -30.79,-330.793 -17.932,-603.522 l 23.378,-495.871 h 891.7906 891.79 v 581.583 581.583 l -873.858,21.94 c -689.0856,17.3 -882.5916,-0.822 -915.1686,-85.713 z m 1440.0656,-517.81 v -232.633 h -542.829 -542.8296 v 232.633 232.633 h 542.8296 542.829 z m 697.923,0 c 0,-610.016 3.231,-620.355 193.867,-620.355 190.637,0 193.868,10.339 193.868,620.355 0,610.016 -3.232,620.355 -193.868,620.355 -190.636,0 -193.867,-10.339 -193.867,-620.355 z"
   id="path4921"
   inkscape:connector-curvature="0"
   sodipodi:nodetypes="scsssscccccsssscsccccccccccccccccsssss" /><text
   style="font-weight:normal;font-size:855.35498047px;font-family:'Arial Black';fill:#2b2a29"
   class="fil3 fnt0"
   id="TM"
   y="15144"
   x="12183">TM</text>
<text
   style="font-weight:normal;font-size:2316.58007812px;font-family:Arial;fill:#ffffff"
   class="fil2 fnt1"
   id="powered_by"
   y="9734"
   x="2530"><tspan
     id="tspan3809"
     rotate="280">P</tspan></text>
<text
   style="font-weight:normal;font-size:2316.58007812px;font-family:Arial;fill:#ffffff"
   class="fil2 fnt1"
   id="text3814"
   y="8207"
   x="2796"><tspan
     id="tspan3812"
     rotate="291">O</tspan></text>
<text
   style="font-weight:normal;font-size:2316.58007812px;font-family:Arial;fill:#ffffff"
   class="fil2 fnt1"
   id="text3818"
   y="6492"
   x="3418"><tspan
     id="tspan3816"
     rotate="308">W</tspan></text>
<text
   style="font-weight:normal;font-size:2316.58007812px;font-family:Arial;fill:#ffffff"
   class="fil2 fnt1"
   id="text3822"
   y="4769"
   x="4777"><tspan
     id="tspan3820"
     rotate="322">E</tspan></text>
<text
   style="font-weight:normal;font-size:2316.58007812px;font-family:Arial;fill:#ffffff"
   class="fil2 fnt1"
   id="text3826"
   y="3789"
   x="5981"><tspan
     id="tspan3824"
     rotate="333">R</tspan></text>
<text
   style="font-weight:normal;font-size:2316.58007812px;font-family:Arial;fill:#ffffff"
   class="fil2 fnt1"
   id="text3830"
   y="3042"
   x="7482"><tspan
     id="tspan3828"
     rotate="344">E</tspan></text>
<text
   style="font-weight:normal;font-size:2316.58007812px;font-family:Arial;fill:#ffffff"
   class="fil2 fnt1"
   id="text3834"
   y="2644"
   x="8978"><tspan
     id="tspan3832"
     rotate="356">D</tspan></text>
<text
   style="font-weight:normal;font-size:2316.58007812px;font-family:Arial;fill:#ffffff"
   class="fil2 fnt1"
   id="text3838"
   y="2582"
   x="10648"><tspan
     id="tspan3836"
     rotate="4"> </tspan></text>
<text
   style="font-weight:normal;font-size:2316.58007812px;font-family:Arial;fill:#ffffff"
   class="fil2 fnt1"
   id="text3842"
   y="2617"
   x="11294"><tspan
     id="tspan3840"
     rotate="13">B</tspan></text>
<text
   style="font-weight:normal;font-size:2316.58007812px;font-family:Arial;fill:#ffffff"
   class="fil2 fnt1"
   id="text3846"
   y="2990"
   x="12795"><tspan
     id="tspan3844"
     rotate="24">Y</tspan></text>
<path
   style="fill:#ffffff;fill-rule:nonzero"
   inkscape:connector-curvature="0"
   d="m 7981,19698 1132,-2184 332,37 672,2387 -344,-39 -186,-721 -961,-108 -325,664 z m 762,-863 778,87 -167,-659 c -50,-200 -86,-365 -110,-495 -48,145 -106,287 -175,425 z m 1942,1062 -257,-2282 862,-97 c 151,-17 268,-23 350,-17 114,6 212,31 294,75 82,44 151,110 208,199 57,89 91,190 104,303 22,193 -21,364 -130,512 -108,148 -324,240 -647,277 l -585,66 105,931 -303,34 z m 168,-1233 590,-66 c 195,-22 330,-74 404,-156 74,-82 103,-189 88,-321 -11,-95 -44,-174 -100,-237 -56,-63 -125,-101 -206,-113 -53,-8 -147,-4 -284,11 l -584,66 z m 1806,1007 -58,-2459 309,-127 1738,1769 -320,131 -510,-543 -895,368 34,738 z m 253,-1123 724,-297 -464,-498 c -140,-152 -252,-279 -335,-381 28,150 45,302 51,457 l 23,719 z m 3095,-1573 293,-115 c 94,240 111,461 53,664 -58,203 -184,374 -378,513 -201,144 -393,220 -578,228 -185,9 -365,-42 -542,-150 -177,-109 -329,-251 -457,-430 -139,-194 -224,-390 -253,-588 -29,-198 -2,-384 81,-557 83,-173 207,-319 371,-436 187,-134 378,-199 573,-195 196,4 380,74 553,210 l -201,231 c -140,-105 -274,-159 -400,-162 -127,-3 -252,40 -377,129 -143,102 -238,223 -285,360 -47,137 -48,279 -4,422 44,144 110,278 198,401 114,159 236,281 367,366 131,86 266,123 405,112 139,-11 265,-57 379,-138 138,-99 226,-222 265,-370 38,-148 18,-313 -60,-495 z m 1224,-34 -1802,-1424 189,-239 742,587 736,-931 -742,-587 189,-239 1802,1424 -189,239 -848,-670 -736,931 848,670 z m 1527,-2139 -2092,-947 684,-1511 245,111 -558,1233 643,291 523,-1154 245,111 -523,1154 713,323 581,-1283 245,111 -706,1560 z"
   class="fil4"
   id="Apache" />
<g
   id="g4891"
   transform="matrix(2.9616396,0,0,2.9616396,21935.299,-9027.9702)"><path
     inkscape:label="hourglass"
     sodipodi:nodetypes="cccccccccsccccccccssccccsccccccsccccc"
     inkscape:connector-curvature="0"
     id="path1466"
     d="m -5304.232,8108.9773 c -61.0646,-61.0651 283.6317,-740.0284 531.6467,-1047.2111 100.6669,-124.6833 267.8115,-297.649 371.4343,-384.3663 103.6189,-86.7193 188.6251,-176.3471 188.9006,-199.1776 0.2828,-22.8234 -46.23,-67.7732 -103.3467,-99.8757 -196.3214,-110.3367 -484.878,-409.8638 -638.3783,-662.6479 -102.5987,-168.9632 -158.7545,-273.877 -210.0569,-292.5958 -44.9017,23.9681 -81.2893,-20.1745 -80.9418,-48.4644 -47.099,-116.5639 169.4896,-236.9707 260.7107,-208.0182 86.9906,14.9971 112.4317,174.5893 136.3212,237.6012 55.2593,145.7538 47.8835,131.465 106.4089,248.3976 128.6505,257.0312 336.0988,477.6259 551.3588,586.2867 164.665,83.1238 223.4752,164.3817 188.1246,259.9396 -11.9287,32.251 -198.7602,235.0382 -415.1785,450.6363 -401.2679,399.7492 -586.7125,641.3329 -710.8516,926.0355 -37.2135,85.3453 -76.7407,172.3547 -87.8365,193.3556 -23.1058,43.7333 -65.457,62.9634 -88.3155,40.1045 z m 2674.8495,-55.4795 c -21.1649,-21.1645 2.8186,-62.5704 36.187,-62.5704 13.7129,0 24.9529,17.9097 24.9529,39.7623 0,40.9924 -31.2774,52.6619 -61.1306,22.7929 z m -162.4108,-359.4424 c -66.0521,-138.5278 -182.9367,-328.4463 -259.7433,-422.0384 -144.3675,-175.9076 -604.8611,-578.4734 -631.8313,-606.4935 -56.5116,-58.7134 -158.4226,-85.5697 -140.6169,-230.2557 8.1718,-31.2155 116.4401,-126.1754 246.3525,-216.0496 335.3256,-231.9883 495.482,-449.6584 598.8948,-813.9572 53.4501,-188.2901 115.3161,-263.8169 195.3067,-238.4285 70.9612,22.5112 70.3256,52.2518 -5.6039,261.4065 -130.5381,359.6305 -335.9735,607.7816 -713.6344,862.0275 -112.9903,76.0653 -207.6106,133.042 -205.4356,179.9062 3.6874,79.4506 71.9134,119.3683 278.3344,302.8578 181.4652,161.3096 406.8723,419.1216 543.629,621.7836 162.2852,240.4976 276.1365,489.4105 240.2626,525.2861 -16.7815,16.7823 -67.9617,-62.5291 -145.9235,-226.0448 z"
     style="fill:#ff0000;stroke-width:26.50802994" /><g
     inkscape:label="color_dots"
     id="g2864"
     transform="matrix(101.02434,0,0,101.02434,-5326.9405,-21864.362)"><circle
       style="opacity:1;fill:#007f00;fill-opacity:1;stroke:none;stroke-width:0.13229166;stroke-miterlimit:4;stroke-dasharray:none;stroke-opacity:1;filter:url(#filter2260)"
       id="path1483"
       cx="13.948128"
       cy="273.89798"
       r="0.88533032"
       inkscape:label="green1" /><circle
       style="opacity:1;fill:#007f00;fill-opacity:1;stroke:none;stroke-width:0.1048349;stroke-miterlimit:4;stroke-dasharray:none;stroke-opacity:1;filter:url(#filter2276)"
       id="path1483-3"
       cx="15.638769"
       cy="275.59299"
       r="0.70158249"
       inkscape:label="green2" /><circle
       style="opacity:1;fill:#007f00;fill-opacity:1;stroke:none;stroke-width:0.072386;stroke-miterlimit:4;stroke-dasharray:none;stroke-opacity:1;filter:url(#filter2292)"
       id="path1483-3-0"
       cx="14.06506"
       cy="275.61847"
       r="0.48442599"
       inkscape:label="green3"
       inkscape:transform-center-x="-1.1418613"
       inkscape:transform-center-y="-0.24220642" /><circle
       style="opacity:1;fill:#007f00;fill-opacity:1;stroke:none;stroke-width:0.05017104;stroke-miterlimit:4;stroke-dasharray:none;stroke-opacity:1;filter:url(#filter2324)"
       id="path1483-3-0-4"
       cx="15.014526"
       cy="277.57547"
       r="0.33575773"
       inkscape:label="green4"
       inkscape:transform-center-x="-0.79142984"
       inkscape:transform-center-y="-0.16789611" /><circle
       style="opacity:1;fill:#007f00;fill-opacity:1;stroke:none;stroke-width:0.03649288;stroke-miterlimit:4;stroke-dasharray:none;stroke-opacity:1;filter:url(#filter2308)"
       id="path1483-3-0-4-8"
       cx="14.125602"
       cy="276.88751"
       r="0.24421985"
       inkscape:label="green5"
       inkscape:transform-center-x="-0.57566127"
       inkscape:transform-center-y="-0.1221404" /><circle
       style="opacity:1;fill:#007f00;fill-opacity:1;stroke:none;stroke-width:0.05017104;stroke-miterlimit:4;stroke-dasharray:none;stroke-opacity:1;filter:url(#filter2340)"
       id="path1483-3-0-4-88"
       cx="13.949684"
       cy="279.63672"
       r="0.33575773"
       inkscape:label="green6"
       inkscape:transform-center-x="-0.79142984"
       inkscape:transform-center-y="-0.16789611" /><circle
       style="opacity:1;fill:#007f00;fill-opacity:1;stroke:none;stroke-width:0.03207992;stroke-miterlimit:4;stroke-dasharray:none;stroke-opacity:1;filter:url(#filter2248)"
       id="path1483-3-0-4-88-9"
       cx="14.34833"
       cy="281.6181"
       r="0.21468724"
       inkscape:label="green7"
       inkscape:transform-center-x="-0.50604888"
       inkscape:transform-center-y="-0.10736249" /><circle
       style="opacity:1;fill:#007f00;fill-opacity:1;stroke:none;stroke-width:0.03207992;stroke-miterlimit:4;stroke-dasharray:none;stroke-opacity:1;filter:url(#filter1940)"
       id="path1483-3-0-4-88-9-7"
       cx="12.798038"
       cy="283.44598"
       r="0.21468726"
       inkscape:label="green8"
       inkscape:transform-center-x="-0.50604888"
       inkscape:transform-center-y="-0.10736249" /><circle
       style="opacity:1;fill:#ff0000;fill-opacity:0.94117647;stroke:none;stroke-width:0.13229166;stroke-miterlimit:4;stroke-dasharray:none;stroke-opacity:1;filter:url(#filter2260-7)"
       id="path1483-4"
       cx="11.592816"
       cy="275.20081"
       r="0.88533032"
       inkscape:label="red1"
       inkscape:transform-center-x="-2.9065562"
       inkscape:transform-center-y="-1.2110651" /><circle
       style="opacity:1;fill:#ff0000;fill-opacity:1;stroke:none;stroke-width:0.1048349;stroke-miterlimit:4;stroke-dasharray:none;stroke-opacity:1;filter:url(#filter2276-3)"
       id="path1483-3-3"
       cx="9.529829"
       cy="274.95859"
       r="0.70158249"
       inkscape:label="red2" /><circle
       style="opacity:1;fill:#ff0000;fill-opacity:1;stroke:none;stroke-width:0.1048349;stroke-miterlimit:4;stroke-dasharray:none;stroke-opacity:1;filter:url(#filter2276-3-0)"
       id="path1483-3-3-2"
       cx="12.03548"
       cy="277.33896"
       r="0.70158249"
       inkscape:label="red3"
       inkscape:transform-center-x="1.7956426"
       inkscape:transform-center-y="-1.9588817"
       transform="matrix(0.88839286,0,0,0.88839286,1.4058873,30.932131)" /><circle
       style="opacity:1;fill:#ff0000;fill-opacity:1;stroke:none;stroke-width:0.1048349;stroke-miterlimit:4;stroke-dasharray:none;stroke-opacity:1;filter:url(#filter2276-3-0-5)"
       id="path1483-3-3-2-0"
       cx="12.03548"
       cy="277.33896"
       r="0.70158249"
       inkscape:label="red3"
       inkscape:transform-center-x="0.95776193"
       inkscape:transform-center-y="-1.0448304"
       transform="matrix(0.47385204,0,0,0.47385204,4.3279237,144.86906)" /><circle
       style="opacity:1;fill:#ff0000;fill-opacity:1;stroke:none;stroke-width:0.1048349;stroke-miterlimit:4;stroke-dasharray:none;stroke-opacity:1;filter:url(#filter2276-3-0-5-5)"
       id="path1483-3-3-2-0-4"
       cx="12.03548"
       cy="277.33896"
       r="0.70158249"
       inkscape:label="red4"
       inkscape:transform-center-x="0.69995244"
       inkscape:transform-center-y="-0.76358713"
       transform="matrix(0.34630101,0,0,0.34630101,6.798504,180.89532)" /><circle
       style="opacity:1;fill:#ff0000;fill-opacity:1;stroke:none;stroke-width:0.1048349;stroke-miterlimit:4;stroke-dasharray:none;stroke-opacity:1;filter:url(#filter2276-3-0-5-5-6)"
       id="path1483-3-3-2-0-4-2"
       cx="12.03548"
       cy="277.33896"
       r="0.70158249"
       inkscape:label="red5"
       inkscape:transform-center-x="0.69995244"
       inkscape:transform-center-y="-0.76358713"
       transform="matrix(0.34630101,0,0,0.34630101,10.707321,182.43211)" /><circle
       style="opacity:1;fill:#ff0000;fill-opacity:1;stroke:none;stroke-width:0.1048349;stroke-miterlimit:4;stroke-dasharray:none;stroke-opacity:1;filter:url(#filter2276-3-0-5-5-2)"
       id="path1483-3-3-2-0-4-7"
       cx="12.03548"
       cy="277.33896"
       r="0.70158249"
       inkscape:label="red6"
       inkscape:transform-center-x="0.69995244"
       inkscape:transform-center-y="-0.76358713"
       transform="matrix(0.34630101,0,0,0.34630101,9.9305688,184.55356)" /><circle
       style="opacity:1;fill:#ff0000;fill-opacity:1;stroke:none;stroke-width:0.1048349;stroke-miterlimit:4;stroke-dasharray:none;stroke-opacity:1;filter:url(#filter2276-3-0-5-5-7)"
       id="path1483-3-3-2-0-4-4"
       cx="12.03548"
       cy="277.33896"
       r="0.70158249"
       inkscape:label="red7"
       inkscape:transform-center-x="0.69995244"
       inkscape:transform-center-y="-0.76358713"
       transform="matrix(0.34630101,0,0,0.34630101,8.8865472,186.35764)" /><circle
       style="opacity:1;fill:#ff0000;fill-opacity:1;stroke:none;stroke-width:0.1048349;stroke-miterlimit:4;stroke-dasharray:none;stroke-opacity:1;filter:url(#filter2276-3-0-5-5-8)"
       id="path1483-3-3-2-0-4-28"
       cx="12.03548"
       cy="277.33896"
       r="0.70158249"
       inkscape:label="red8"
       inkscape:transform-center-x="0.69995244"
       inkscape:transform-center-y="-0.76358713"
       transform="matrix(0.34630101,0,0,0.34630101,10.181134,186.3994)" /><circle
       style="opacity:1;fill:#ff0000;fill-opacity:1;stroke:none;stroke-width:0.1048349;stroke-miterlimit:4;stroke-dasharray:none;stroke-opacity:1;filter:url(#filter2276-3-0-5-5-6-8)"
       id="path1483-3-3-2-0-4-2-2"
       cx="12.03548"
       cy="277.33896"
       r="0.70158249"
       inkscape:label="red10"
       inkscape:transform-center-x="0.88984675"
       inkscape:transform-center-y="-0.97074837"
       transform="matrix(0.44025121,0,0,0.44025121,10.986824,155.23165)" /><circle
       style="opacity:1;fill:#ff0000;fill-opacity:1;stroke:none;stroke-width:0.1048349;stroke-miterlimit:4;stroke-dasharray:none;stroke-opacity:1;filter:url(#filter2276-3-0-5-5-9)"
       id="path1483-3-3-2-0-4-6"
       cx="12.03548"
       cy="277.33896"
       r="0.70158249"
       inkscape:label="red9"
       inkscape:transform-center-x="0.69995244"
       inkscape:transform-center-y="-0.76358713"
       transform="matrix(0.34630101,0,0,0.34630101,11.233508,187.66058)" /><circle
       style="opacity:1;fill:#0000ff;fill-opacity:1;stroke:none;stroke-width:0.1048349;stroke-miterlimit:4;stroke-dasharray:none;stroke-opacity:1;filter:url(#filter2531)"
       id="path1483-3-1"
       cx="17.475492"
       cy="274.56949"
       r="0.70158249"
       inkscape:label="blue1"
       transform="matrix(1.1352883,0,0,1.1352883,-2.3642295,-37.146036)" /><circle
       style="opacity:1;fill:#0000ff;fill-opacity:1;stroke:none;stroke-width:0.1048349;stroke-miterlimit:4;stroke-dasharray:none;stroke-opacity:1;filter:url(#filter2531-0)"
       id="path1483-3-1-1"
       cx="17.475492"
       cy="274.56949"
       r="0.70158249"
       inkscape:label="blue2"
       transform="matrix(0.67681132,0,0,0.67681132,5.9136463,90.544934)"
       inkscape:transform-center-x="-0.059854253"
       inkscape:transform-center-y="-0.72177105" /><circle
       style="opacity:1;fill:#0000ff;fill-opacity:1;stroke:none;stroke-width:0.1048349;stroke-miterlimit:4;stroke-dasharray:none;stroke-opacity:1;filter:url(#filter2531-0-1)"
       id="path1483-3-1-1-8"
       cx="17.475492"
       cy="274.56949"
       r="0.70158249"
       inkscape:label="blue3"
       transform="matrix(0.48139489,0,0,0.48139489,10.50982,142.52895)"
       inkscape:transform-center-x="-0.042571968"
       inkscape:transform-center-y="-0.51337868" /><circle
       style="opacity:1;fill:#0000ff;fill-opacity:1;stroke:none;stroke-width:0.1048349;stroke-miterlimit:4;stroke-dasharray:none;stroke-opacity:1;filter:url(#filter2531-0-5)"
       id="path1483-3-1-1-4"
       cx="17.475492"
       cy="274.56949"
       r="0.70158249"
       inkscape:label="blue4"
       transform="matrix(0.29349449,0,0,0.29349449,13.651731,195.042)"
       inkscape:transform-center-x="-0.025955496"
       inkscape:transform-center-y="-0.31298695" /><circle
       style="opacity:1;fill:#0000ff;fill-opacity:1;stroke:none;stroke-width:0.1048349;stroke-miterlimit:4;stroke-dasharray:none;stroke-opacity:1;filter:url(#filter2531-0-5-6)"
       id="path1483-3-1-1-4-5"
       cx="17.475492"
       cy="274.56949"
       r="0.70158249"
       inkscape:label="blue5"
       transform="matrix(0.32355855,0,0,0.32355855,7.3976455,186.79913)"
       inkscape:transform-center-x="-0.028614186"
       inkscape:transform-center-y="-0.34504766" /><circle
       style="opacity:1;fill:#0000ff;fill-opacity:1;stroke:none;stroke-width:0.1048349;stroke-miterlimit:4;stroke-dasharray:none;stroke-opacity:1;filter:url(#filter2531-0-8)"
       id="path1483-3-1-1-7"
       cx="17.475492"
       cy="274.56949"
       r="0.70158249"
       inkscape:label="blue6"
       transform="matrix(0.76609135,0,0,0.76609135,0.30399118,67.713821)"
       inkscape:transform-center-x="-0.067749861"
       inkscape:transform-center-y="-0.81698114" /><circle
       style="opacity:1;fill:#0000ff;fill-opacity:1;stroke:none;stroke-width:0.03207992;stroke-miterlimit:4;stroke-dasharray:none;stroke-opacity:1;filter:url(#filter2248-2)"
       id="path1483-3-0-4-88-9-0"
       cx="13.559896"
       cy="281.60339"
       r="0.21468724"
       inkscape:label="blue7"
       inkscape:transform-center-x="-0.50604888"
       inkscape:transform-center-y="-0.10736249" /><circle
       style="opacity:1;fill:#0000ff;fill-opacity:1;stroke:none;stroke-width:0.03207992;stroke-miterlimit:4;stroke-dasharray:none;stroke-opacity:1;filter:url(#filter2248-2-6)"
       id="path1483-3-0-4-88-9-0-9"
       cx="13.819755"
       cy="283.19205"
       r="0.21468724"
       inkscape:label="blue8"
       inkscape:transform-center-x="-0.50604888"
       inkscape:transform-center-y="-0.10736249" /><circle
       style="opacity:1;fill:#0000ff;fill-opacity:1;stroke:none;stroke-width:0.03207992;stroke-miterlimit:4;stroke-dasharray:none;stroke-opacity:1;filter:url(#filter2248-2-6-9)"
       id="path1483-3-0-4-88-9-0-9-8"
       cx="15.130859"
       cy="282.93811"
       r="0.21468724"
       inkscape:label="blue9"
       inkscape:transform-center-x="-0.50604888"
       inkscape:transform-center-y="-0.10736249" /><circle
       style="opacity:1;fill:#c0af83;fill-opacity:1;stroke:none;stroke-width:0.03207992;stroke-miterlimit:4;stroke-dasharray:none;stroke-opacity:1;filter:url(#filter2248-2-6-9-1)"
       id="path1483-3-0-4-88-9-0-9-8-1"
       cx="12.012555"
       cy="283.69995"
       r="0.21468724"
       inkscape:label="coffee1"
       inkscape:transform-center-x="-0.50604888"
       inkscape:transform-center-y="-0.10736249" /><circle
       style="opacity:1;fill:#c0af83;fill-opacity:1;stroke:none;stroke-width:0.03207992;stroke-miterlimit:4;stroke-dasharray:none;stroke-opacity:1;filter:url(#filter2248-2-6-9-1-1)"
       id="path1483-3-0-4-88-9-0-9-8-1-3"
       cx="11.510556"
       cy="284.78076"
       r="0.21468724"
       inkscape:label="coffee2"
       inkscape:transform-center-x="-0.50604888"
       inkscape:transform-center-y="-0.10736249" /><circle
       style="opacity:1;fill:#c0af83;fill-opacity:1;stroke:none;stroke-width:0.03207992;stroke-miterlimit:4;stroke-dasharray:none;stroke-opacity:1;filter:url(#filter2248-2-6-9-1-4)"
       id="path1483-3-0-4-88-9-0-9-8-1-9"
       cx="12.561803"
       cy="284.50906"
       r="0.21468724"
       inkscape:label="coffee3"
       inkscape:transform-center-x="-0.50604888"
       inkscape:transform-center-y="-0.10736249" /><circle
       style="opacity:1;fill:#c0af83;fill-opacity:1;stroke:none;stroke-width:0.03207992;stroke-miterlimit:4;stroke-dasharray:none;stroke-opacity:1;filter:url(#filter2248-2-6-9-1-19)"
       id="path1483-3-0-4-88-9-0-9-8-1-93"
       cx="13.311849"
       cy="284.76303"
       r="0.21468724"
       inkscape:label="coffee4"
       inkscape:transform-center-x="-0.50604888"
       inkscape:transform-center-y="-0.10736249" /><circle
       style="opacity:1;fill:#c0af83;fill-opacity:1;stroke:none;stroke-width:0.03207992;stroke-miterlimit:4;stroke-dasharray:none;stroke-opacity:1;filter:url(#filter2248-2-6-9-1-3)"
       id="path1483-3-0-4-88-9-0-9-8-1-0"
       cx="13.613049"
       cy="283.97754"
       r="0.21468724"
       inkscape:label="coffee5"
       inkscape:transform-center-x="-0.50604888"
       inkscape:transform-center-y="-0.10736249" /><circle
       style="opacity:1;fill:#c0af83;fill-opacity:1;stroke:none;stroke-width:0.03207992;stroke-miterlimit:4;stroke-dasharray:none;stroke-opacity:1;filter:url(#filter2248-2-6-9-1-5)"
       id="path1483-3-0-4-88-9-0-9-8-1-4"
       cx="14.605236"
       cy="283.96573"
       r="0.21468724"
       inkscape:label="coffee6"
       inkscape:transform-center-x="-0.50604888"
       inkscape:transform-center-y="-0.10736249" /><circle
       style="opacity:1;fill:#c0af83;fill-opacity:1;stroke:none;stroke-width:0.03207992;stroke-miterlimit:4;stroke-dasharray:none;stroke-opacity:1;filter:url(#filter2248-2-6-9-1-0)"
       id="path1483-3-0-4-88-9-0-9-8-1-6"
       cx="14.871001"
       cy="284.78073"
       r="0.21468724"
       inkscape:label="coffee7"
       inkscape:transform-center-x="-0.50604888"
       inkscape:transform-center-y="-0.10736249" /><circle
       style="opacity:1;fill:#c0af83;fill-opacity:1;stroke:none;stroke-width:0.03207992;stroke-miterlimit:4;stroke-dasharray:none;stroke-opacity:1;filter:url(#filter2248-2-6-9-1-2)"
       id="path1483-3-0-4-88-9-0-9-8-1-5"
       cx="15.6742"
       cy="284.77481"
       r="0.21468724"
       inkscape:label="coffee8"
       inkscape:transform-center-x="-0.50604888"
       inkscape:transform-center-y="-0.10736249" /><circle
       style="opacity:1;fill:#c0af83;fill-opacity:1;stroke:none;stroke-width:0.03207992;stroke-miterlimit:4;stroke-dasharray:none;stroke-opacity:1;filter:url(#filter2248-2-6-9-1-6)"
       id="path1483-3-0-4-88-9-0-9-8-1-8"
       cx="16.418341"
       cy="284.49725"
       r="0.21468724"
       inkscape:label="coffee9"
       inkscape:transform-center-x="-0.50604888"
       inkscape:transform-center-y="-0.10736249" /></g><g
     style="display:inline"
     inkscape:label="cup"
     id="g3054"
     transform="matrix(319.20648,0,0,319.20648,-45013.798,-50651.641)"><g
       id="g2998"
       transform="translate(0.01169304,-1.727816)"><ellipse
         ry="0.64501309"
         rx="2.2179031"
         cy="184.27515"
         cx="128.77695"
         id="path2951-9"
         style="opacity:1;fill:#000000;fill-opacity:1;stroke:#5993dc;stroke-width:0;stroke-miterlimit:4;stroke-dasharray:none;stroke-opacity:1" /><ellipse
         ry="0.64501309"
         rx="2.2179034"
         cy="184.3564"
         cx="128.77747"
         id="path2951-9-0"
         style="opacity:1;fill:#000000;fill-opacity:1;stroke:#5993dc;stroke-width:0;stroke-miterlimit:4;stroke-dasharray:none;stroke-opacity:1" /><ellipse
         ry="0.61824954"
         rx="2.1833072"
         cy="184.27364"
         cx="128.77689"
         id="path2951"
         style="opacity:1;fill:#ccaf5f;fill-opacity:1;stroke:#5993dc;stroke-width:0;stroke-miterlimit:4;stroke-dasharray:none;stroke-opacity:1" /></g><path
       style="display:inline;fill:#000000;fill-opacity:1;stroke:none;stroke-width:0.03779528;stroke-linecap:butt;stroke-linejoin:miter;stroke-miterlimit:4;stroke-dasharray:none;stroke-opacity:1"
       d="m 486.9043,682.01953 c -2.50186,-0.048 -5.12716,0.67257 -5.125,1.49024 l 0.004,1.44335 h 0.002 c 0.37644,3.65723 2.27859,6.05321 4.87059,6.03812 2.592,-0.0151 3.60697,-1.28146 4.563,-3.19632 4.12974,-2.05232 2.78561,-3.41817 0.43164,-3.0957 l 0.0332,-1.28906 c 0.0227,-0.79491 -2.27789,-1.34255 -4.77929,-1.39063 z m 5.67382,3.14258 c 0.69846,0.0585 0.66798,0.67417 0.20899,1.13281 l -1.44727,1.08399 c 0.10281,-0.65923 0.26206,-0.69907 0.36524,-2.17774 z"
       transform="scale(0.26458333)"
       id="path3012"
       inkscape:connector-curvature="0"
       sodipodi:nodetypes="cccczcccccccccc" /><path
       style="fill:#ccaf5f;fill-opacity:1;stroke:none;stroke-width:0.01;stroke-linecap:butt;stroke-linejoin:miter;stroke-miterlimit:4;stroke-dasharray:none;stroke-opacity:1"
       d="m 127.51611,181.29623 c 0.0272,0.28871 0.2976,1.45684 1.25955,1.48215 0.96194,0.0253 1.27955,-0.97941 1.26773,-1.47933 -0.83083,0.45557 -1.88688,0.29236 -2.52728,-0.003 z"
       id="path3033"
       inkscape:connector-curvature="0"
       sodipodi:nodetypes="czcc" /><path
       style="fill:#ffffff;fill-opacity:1;stroke:none;stroke-width:0.01;stroke-linecap:butt;stroke-linejoin:miter;stroke-miterlimit:4;stroke-dasharray:none;stroke-opacity:1"
       d="m 127.51166,181.23764 c 0.18196,0.10413 0.86168,0.30435 1.25671,0.29869 0.39503,-0.006 0.64044,-3.2e-4 1.27229,-0.29087 l 0.006,-0.25539 c -0.0394,0.10285 -0.67435,0.32561 -1.27739,0.32734 -0.60304,0.002 -1.0452,-0.12585 -1.25972,-0.33363 z"
       id="path3035"
       inkscape:connector-curvature="0"
       sodipodi:nodetypes="czcczcc" /><ellipse
       style="display:inline;opacity:1;fill:#ffffff;fill-opacity:1;stroke:none;stroke-width:0.01257183;stroke-miterlimit:4;stroke-dasharray:none;stroke-opacity:1"
       id="path3037"
       cx="129.53156"
       cy="180.86237"
       rx="1.2750689"
       ry="0.36997855"
       transform="matrix(1,0,-0.00411815,0.99999152,0,0)" /><path
       style="fill:#c0af83;fill-opacity:1;stroke:none;stroke-width:0.01;stroke-linecap:butt;stroke-linejoin:miter;stroke-miterlimit:4;stroke-dasharray:none;stroke-opacity:1"
       d="m 127.71432,181.06203 c 0.21614,0.0876 0.47779,0.21433 1.05092,0.19878 0.57313,-0.0155 0.93983,-0.11187 1.11084,-0.20902 -0.23422,-0.15242 -0.45794,-0.24172 -1.05092,-0.24847 -0.59298,-0.007 -0.93477,0.10876 -1.11084,0.25871 z"
       id="path3039"
       inkscape:connector-curvature="0"
       sodipodi:nodetypes="czczc" /></g><g
     inkscape:label="documents"
     id="g3733"
     transform="matrix(311.05378,0,0,311.05378,-54899.286,-54969.589)"><path
       style="display:inline;fill:#cdcdcd;stroke-width:0.31999999"
       d="m 614.56836,722.91602 c 0.002,0.004 0.003,0.008 0.006,0.0137 v -0.008 c -2.3e-4,-2.7e-4 2.3e-4,-0.002 0,-0.002 -10e-4,-0.002 -0.005,-0.002 -0.006,-0.004 z m 5.42578,0.0117 c -0.002,1.2e-4 -0.004,0.002 -0.006,0.002 -0.1937,0.015 -0.41023,0.095 -0.76953,0.16601 -0.10717,0.0216 -0.21816,0.0376 -0.35742,0.0547 -0.0666,0.008 -0.12593,0.0171 -0.20117,0.0234 -0.22608,0.0193 -0.48216,0.0314 -0.80274,0.0254 -0.96726,-0.0188 -1.60126,-0.0356 -2.0918,-0.0586 -0.31591,-0.0155 -0.60455,-0.0331 -0.77539,-0.0605 -0.0128,-0.002 -0.0445,-0.004 -0.0566,-0.006 0.0281,0.18475 0.0803,0.4784 0.0586,0.93945 0.0126,10e-6 0.0188,0.002 0.0312,0.002 0.40748,7e-4 0.69076,0.0115 0.91406,0.0313 0.002,1.6e-4 0.006,-1.8e-4 0.008,0 0.8289,-0.006 1.30116,0.31165 3.53907,-0.10938 0.78424,-0.13351 1.11772,0.35153 1.40751,0.60657 1.07734,0.94809 2.09321,1.54497 2.99288,1.11413 0.8859,-0.21646 1.35349,-0.96306 2.28711,-1.36718 0.005,-0.36089 -0.0122,-0.68485 -0.0684,-0.9004 -0.0575,0.0439 -0.0813,0.0652 -0.1504,0.11524 -0.2538,0.18525 -0.58093,0.40701 -1.02539,0.66797 -0.7936,0.37882 -1.30115,0.7521 -1.86914,0.73047 -0.14265,-0.005 -0.28748,-0.0362 -0.44336,-0.0977 -0.30958,-0.12215 -0.65735,-0.3673 -1.08398,-0.7832 -0.21381,-0.20842 -0.44754,-0.45931 -0.70703,-0.75977 h -0.002 c -0.1815,-0.12569 -0.31465,-0.19926 -0.43555,-0.25195 -0.0298,-0.0131 -0.0603,-0.0238 -0.0879,-0.0332 -0.1097,-0.0378 -0.20697,-0.0574 -0.30274,-0.0508 -6e-4,5e-5 -10e-4,-4e-5 -0.002,0 z m -3.60547,1.22071 c 0.0152,0.008 0.0364,0.0159 0.0488,0.0254 -0.013,-0.009 -0.0333,-0.0174 -0.0488,-0.0254 z m 0.11719,0.0918 c 0.0279,0.0463 0.0488,0.0951 0.0488,0.16211 0,-0.0653 -0.0184,-0.11719 -0.0488,-0.16211 z m -0.4082,0.93555 c -0.35394,0.0763 -0.84461,-0.0283 -1.3086,0.0625 -1.24811,0 -2.34218,0.41393 -3.45117,1.29883 -0.5884,0.46949 -1.00688,0.59193 -1.92383,0.90234 -0.4734,0.16026 -0.8412,0.29665 -1.15429,0.40821 -0.20318,0.0716 -0.3993,0.13804 -0.54102,0.17382 -0.002,5.5e-4 -0.006,10e-4 -0.008,0.002 -0.0983,0.0248 -0.19086,0.0444 -0.26172,0.0469 l 0.33984,1.15625 c 0.0232,3.9e-4 0.0468,0.008 0.0742,0.0449 1.2116,-0.62653 1.31838,-0.71948 2.17774,-0.92773 0,0 0.66835,2.23444 0.71484,2.58594 0.0464,0.35134 0.92017,2.45074 1.25391,3.35351 0.33354,0.90278 1.20365,2.5793 1.32421,3.06055 0.19658,0.19695 0.18808,0.006 2.16602,-0.71094 0.86293,-0.43711 1.7418,-0.80741 1.95312,-0.94726 -0.037,-0.13335 -0.072,-0.32803 -0.10937,-0.48438 -0.0285,0.22021 -0.14999,0.26349 -0.39648,0.35742 l -3.41407,1.60547 -0.2832,-0.73633 c -0.15553,-0.40414 -0.54891,-1.28429 -1.02539,-2.26757 -0.53401,-1.10193 -1.02095,-2.43748 -1.19141,-3.37696 l -0.63476,-2.58398 c 1.19584,-0.94571 3.1848,-1.84002 4.5,-2.07813 l 1.19922,-0.21679 z m -1.14258,1.50195 c -0.67536,0.0796 -1.891,0.63431 -2.9043,1.37891 -0.90792,0.66728 -0.98351,0.84509 -0.74805,1.78906 0.43382,1.73832 0.91084,3.16881 1.65039,4.95313 h 0.002 c 0.38645,0.93241 0.7439,1.69531 0.79492,1.69531 0.0509,0 2.0813,-0.88412 2.89062,-1.27734 0.1304,-0.16929 0.12256,-0.25807 -0.0215,-0.95899 -0.091,-0.44281 -0.34121,-2.24389 -0.55664,-4.0039 -0.21532,-1.75998 -0.5042,-3.32873 -0.64062,-3.48633 -0.0776,-0.0894 -0.24168,-0.11649 -0.4668,-0.0898 z m 0.0234,0.39063 c 0.50294,-0.16078 0.90556,4.02711 1.26953,6.55078 0.006,0.23962 0.30726,1.1777 -0.0723,1.31641 l -2.21875,0.95117 -0.67383,-1.77149 c -0.40535,-0.92284 -0.9257,-2.48879 -1.15625,-3.48046 -0.40898,-1.75971 -0.4,-1.81602 0.33985,-2.30079 0.41695,-0.27318 2.04339,-1.0876 2.51172,-1.26562 z m 9.18164,0.51953 c -0.10742,0.13097 -0.19843,0.43318 -0.28321,0.83789 l 1.14649,0.18945 c 0.63537,0.10508 1.8186,0.19335 2.63086,0.19532 1.00739,0.002 1.74678,0.21378 2.32422,0.66797 l 1.08203,0.71484 c 0.1978,-0.33447 0.32853,-0.62243 0.33984,-1.06055 -0.005,-0.002 -0.0182,-0.01 -0.0234,-0.0117 -0.25455,-0.10181 -0.58631,-0.28506 -1.11914,-0.57421 -0.165,-0.0828 -0.38513,-0.16696 -0.64062,-0.25 -0.51099,-0.16609 -1.16506,-0.32421 -1.81446,-0.4375 -0.32469,-0.0566 -0.64776,-0.10284 -0.95117,-0.13282 -1.16295,-0.11481 -2.36301,-0.0875 -2.6914,-0.13867 z m 0.0723,1.48438 -0.61328,3.79296 c -0.4252,3.679 -0.8807,4.03516 -0.17578,3.72071 -2.3e-4,-1.0944 0.38782,-3.86556 0.53711,-4.22461 l 0.50391,-2.84375 1.00781,0.31836 c 0.55366,0.17575 1.43684,0.30613 1.96484,0.29101 2.25732,0.25334 1.90883,0.29584 1.08399,2.54493 h 0.002 c -0.41843,1.25833 -0.63416,2.89481 -1.1543,4.18359 -0.27364,0.8945 -0.24083,0.80859 -0.082,0.80859 0.45562,0 0.93095,-2.05232 1.25977,-3.51953 0.16478,-0.73531 0.53262,-1.89602 0.81836,-2.58008 0.52236,-1.25019 0.35743,-1.71536 -0.64649,-1.8125 -1.18628,-0.11444 -2.08425,-0.23813 -3.21289,-0.44336 z"
       transform="scale(0.26458333)"
       id="path3233"
       inkscape:connector-curvature="0"
       inkscape:label="light gray"
       sodipodi:nodetypes="ccccccccccccccccccccsccccccccccccccccccccccccccccccccccccccccccccccccccccscccccccccccccccccccccccccccccccccccccccsccccc" /><path
       inkscape:label="dark gray"
       sodipodi:nodetypes="cccccccccccccccccccccccccccccccccccccccccccccccccccccccscccccccccccccccccccccccccccccccccccccccccccccccccccccccccccccccccccccccccccccccccccccccccccccccccccccccccccccccccscccccccccscccccccccccccccccccccccccccccccccccccccccccccccccccccccccccccccccccccccccccccccccccccccccccccccccccccccccccccccccccccccccccccccccccccccccccccccccccccccccccccccccccccccccccccccccccccccccccccccccccccccccccccccccccccccccccccccccccccccccccccccccccccccccccccccccccccccccccccccccccccccccccccccccccccccccccccccccccacccccccccccccccccccccccccccccccaccccccccccccccccccccccccc"
       inkscape:connector-curvature="0"
       id="path3720"
       transform="scale(0.26458333)"
       d="m 626.15039,722.23828 c -0.14691,0.008 -0.33657,0.0733 -0.57617,0.20703 -0.0343,0.0259 -0.0336,0.0296 -0.0664,0.0547 0.38795,-0.18092 0.68437,-0.26853 0.80664,-0.23438 -0.0486,-0.0175 -0.10043,-0.0306 -0.16406,-0.0273 z m 0.22266,0.0586 c 0.12023,0.27135 0.19498,0.41351 0.22656,0.50585 -0.0197,-0.24909 -0.0913,-0.42249 -0.22656,-0.50585 z m -11.79883,0.62304 -0.006,0.15039 c 0.0586,0.39974 0.11165,0.72251 0.01,0.97266 0.12842,-0.0114 0.2595,-0.0288 0.38086,-0.0293 0.0136,0 0.0198,-1e-5 0.0332,0 0.0217,-0.46105 -0.0305,-0.7547 -0.0586,-0.93945 -0.19719,-0.0351 -0.30099,-0.0865 -0.35937,-0.1543 z m 12.01953,0.0605 c -0.0201,0.0274 -0.0441,0.0537 -0.0879,0.0918 -0.0787,0.0683 -0.23959,0.19403 -0.40234,0.31835 0.15981,0.61344 0.12008,1.9391 -0.4043,3.27344 0.16535,8.8e-4 0.26398,-0.009 0.42187,-0.01 0.0681,-1.24363 0.47946,-2.77778 0.47266,-3.67383 z m -10.09961,1.82226 c -0.0247,0.0975 -0.0488,0.17774 -0.0488,0.17774 0.24607,0.0359 0.53324,0.0793 0.68555,0.10156 -0.0135,0.19358 -0.0176,0.38986 -0.0293,0.58399 -0.19721,-0.0281 -0.39458,-0.0669 -0.59179,-0.0918 l -0.004,0.008 c -0.0218,-0.29767 -0.0399,-0.41047 -0.0606,-0.60156 -0.0752,0.099 -0.19947,0.15041 -0.34765,0.17578 v 1.59961 c 0.2313,3.30557 0.38456,3.93259 0.79687,5.97656 0.3035,2.36652 0.85626,4.33856 1.05469,3.75977 -0.0301,-0.23244 -0.17148,-0.92772 -0.25977,-1.4043 0.28908,0.0415 0.57832,0.0846 0.86914,0.14453 -0.0129,0.12232 -0.0208,0.24484 -0.0351,0.36719 v 0.004 l 0.19726,-0.0527 c 0.012,-0.089 0.0233,-0.18205 0.0352,-0.27148 0.31303,0.069 0.62621,0.1366 0.94141,0.22851 0.13038,0.0527 0.23996,0.0862 0.36132,0.13086 -0.0236,0.15167 -0.0424,0.30349 -0.0684,0.45508 l 0.002,0.006 0.19922,-0.043 c 0.0213,-0.11338 0.0413,-0.23158 0.0625,-0.3457 0.44049,0.15355 0.82488,0.25811 1.17968,0.33594 -0.0364,0.16869 -0.068,0.33741 -0.10742,0.50585 v 0.006 l 0.20117,-0.0312 c 0.0365,-0.14521 0.0713,-0.29666 0.10743,-0.44336 0.21287,0.0424 0.4227,0.0826 0.6289,0.11914 -0.0515,0.16763 -0.0959,0.34695 -0.15234,0.50586 0.30879,0.25097 0.18438,0.11058 0.37109,-0.1914 0.26079,-0.42202 0.76162,-3.30859 1.22461,-7.06446 0.13238,-1.0739 0.27097,-1.64313 0.45313,-1.86523 -0.0143,-0.002 -0.0752,-0.001 -0.0859,-0.004 -0.15022,-0.0358 -0.28444,-0.0541 -0.31641,-0.23828 -0.003,0.003 -10e-4,0.002 -0.004,0.006 -0.18592,-0.0366 -0.37038,-0.0778 -0.55469,-0.11914 0.0477,-0.18362 0.0904,-0.37084 0.14062,-0.55273 0.11144,0.0194 0.32348,0.0739 0.50391,0.11719 0.0203,-0.0696 0.0222,-0.1071 0.0508,-0.19141 v -0.002 c 0.0162,0.002 0.0962,0.002 0.11719,0.004 -0.29845,-0.0544 -0.65568,-0.11849 -0.82422,-0.1543 -0.59074,-0.13474 -1.17005,-0.30158 -1.74609,-0.48046 l -0.19532,-0.0625 c -0.37223,-0.1181 -0.74609,-0.232 -1.11523,-0.35938 -0.22725,-0.0761 -0.45439,-0.13883 -0.68164,-0.20117 l -0.19727,-0.0566 c -0.63665,-0.16467 -1.27349,-0.26855 -1.91015,-0.36328 l -0.20313,-0.0332 c -0.13758,-0.0194 -0.41922,-0.0616 -0.64453,-0.0937 z m -4.92969,0.16407 c -0.23426,0.0811 -0.46164,0.17563 -0.66992,0.31445 0.222,-0.11618 0.44609,-0.2107 0.66992,-0.31445 z m 5.76758,0.14648 c 0.62706,0.098 1.25768,0.22985 1.89063,0.39258 -0.0282,0.17857 -0.0496,0.35984 -0.0762,0.53906 -0.61509,-0.15695 -1.22864,-0.25569 -1.84375,-0.34765 0.0111,-0.19395 0.0153,-0.39129 0.0293,-0.58399 z m 2.08789,0.44338 c 0.20915,0.0561 0.41709,0.0941 0.62696,0.1582 0.4176,0.17683 0.79717,0.31852 1.15234,0.4375 -0.0344,0.16347 -0.0627,0.33003 -0.0957,0.49414 -0.34441,-0.1102 -0.69139,-0.21212 -1.03321,-0.33007 -0.24151,-0.0809 -0.48309,-0.14943 -0.72461,-0.21485 0.0262,-0.18111 0.0456,-0.36515 0.0742,-0.54492 z m -2.90234,0.20313 c 0.19106,0.0266 0.38304,0.0636 0.57422,0.0918 -0.0125,0.21903 -0.024,0.4382 -0.0332,0.65821 -0.16601,-0.0239 -0.33198,-0.053 -0.49804,-0.0781 -0.0144,-0.23095 -0.0286,-0.46702 -0.043,-0.67187 z m 0.77734,0.12304 c 0.60423,0.0951 1.21063,0.22186 1.82031,0.37696 -0.0295,0.20485 -0.0593,0.4092 -0.0859,0.61523 -0.58836,-0.14899 -1.17726,-0.24282 -1.76563,-0.33203 0.008,-0.22136 0.0198,-0.44048 0.0312,-0.66016 z m 4.09961,0.32813 c 0.64638,0.20535 1.2145,0.33822 1.74414,0.43554 -0.0493,0.17948 -0.093,0.3626 -0.14062,0.54297 -0.57469,-0.13531 -1.13806,-0.30457 -1.69922,-0.48047 0.0326,-0.16569 0.0611,-0.33361 0.0957,-0.49804 z m -2.07812,0.0996 c 0.22372,0.0595 0.44537,0.10134 0.66992,0.16992 0.38544,0.16319 0.73671,0.29482 1.06836,0.4082 -0.0375,0.19116 -0.0765,0.38186 -0.11133,0.57422 -0.32223,-0.10377 -0.64679,-0.20011 -0.9668,-0.31055 -0.24913,-0.0834 -0.49695,-0.15368 -0.74609,-0.2207 0.0252,-0.20894 0.0573,-0.414 0.0859,-0.62109 z m -2.74414,0.30859 c 0.15893,0.0257 0.31786,0.0524 0.47656,0.0762 -0.008,0.21689 -0.0273,0.43031 -0.0312,0.64844 -0.13472,-0.0194 -0.26951,-0.041 -0.4043,-0.0625 -0.0138,-0.24156 -0.0269,-0.42968 -0.041,-0.66211 z m 0.68164,0.10938 c 0.57959,0.0927 1.16147,0.21332 1.74609,0.36132 -0.0249,0.20228 -0.0568,0.40174 -0.0781,0.60547 -0.56362,-0.13957 -1.12584,-0.23095 -1.68946,-0.3164 0.002,-0.21898 0.0152,-0.43312 0.0215,-0.65039 z m 3.99804,0.22265 c 0.62838,0.20422 1.18156,0.33936 1.69532,0.4375 -0.053,0.20412 -0.1081,0.40759 -0.15821,0.61328 -0.55747,-0.13478 -1.10338,-0.30451 -1.64844,-0.47656 0.0335,-0.19358 0.075,-0.3824 0.11133,-0.57422 z m -2.05078,0.18945 c 0.23091,0.0611 0.45962,0.105 0.69141,0.17579 0.36294,0.15367 0.69097,0.27559 1.00586,0.38476 -0.0326,0.18711 -0.0701,0.372 -0.0996,0.56055 -0.28411,-0.0925 -0.57107,-0.17597 -0.85352,-0.27344 -0.27075,-0.0907 -0.54174,-0.1688 -0.8125,-0.24023 0.0198,-0.204 0.0452,-0.40524 0.0684,-0.60743 z m 3.94922,0.28321 c 0.19209,0.0346 0.384,0.0686 0.57227,0.0996 -0.0397,0.20343 -0.0805,0.4101 -0.11719,0.65234 -0.20538,-0.0407 -0.40997,-0.084 -0.61328,-0.13086 0.0493,-0.20935 0.10556,-0.41405 0.1582,-0.62109 z m -6.52539,0.0449 c 0.13102,0.0222 0.26186,0.0429 0.39258,0.0625 -0.003,0.24824 -0.002,0.49782 0.002,0.74805 -0.15903,-0.0236 -0.2503,-0.0511 -0.34961,-0.0781 -0.0171,-0.31108 -0.0263,-0.40281 -0.0449,-0.73242 z m 0.61133,0.0977 c 0.55306,0.0888 1.10839,0.20272 1.66601,0.34179 -0.0231,0.23644 -0.0434,0.47405 -0.0605,0.71289 -0.52982,-0.1333 -1.05807,-0.22103 -1.58789,-0.30468 -0.004,-0.24917 -0.0188,-0.50311 -0.0176,-0.75 z m 3.85937,0.20313 c 0.61033,0.20172 1.14356,0.33098 1.64258,0.42969 -0.0472,0.1987 -0.0988,0.39512 -0.14258,0.5957 -0.53836,-0.13488 -1.06652,-0.30045 -1.59375,-0.46875 0.028,-0.18739 0.0633,-0.37095 0.0937,-0.55664 z m -6.20703,0.0742 c -0.13001,-0.0265 -0.55675,0.13977 -0.87109,0.30078 -0.35188,0.18028 -0.85495,0.47515 -1.11914,0.6543 -0.26419,0.17915 -0.86243,0.57544 -0.66211,0.57812 0.20069,0.003 1.22197,-0.45764 2.47851,-1.24023 0.22262,-0.19465 0.25169,-0.27785 0.17383,-0.29297 z m 16.55469,0 c 0.1773,0.0898 0.39366,0.18554 0.51562,0.26563 0.1493,0.0983 0.0816,0.58475 0.0801,0.68359 -0.11266,0.41136 -0.28085,0.47549 -0.63867,0.33789 -0.0189,0.75318 -0.29408,0.92866 -0.88867,1.98047 -0.56096,1.30858 -0.61518,1.52649 -1.29492,3.46289 -0.008,0.68542 -1.86633,3.83984 -2.26368,3.83984 -0.1829,0 -0.23912,0.14955 -0.125,0.33399 0.35263,0.57044 1.15822,-0.36321 2.08594,-2.41602 0.47721,-1.056 0.97152,-2.42307 1.09961,-3.03906 0.12813,-0.61603 0.65113,-1.75695 1.16016,-2.53516 1.06057,-1.62138 1.22175,-2.90499 0.36523,-2.9082 -0.0218,-7e-5 -0.0704,-0.006 -0.0957,-0.006 z m -12.32422,0.12109 c 0.24771,0.0648 0.49347,0.11155 0.74219,0.1875 0.32627,0.13815 0.61737,0.24397 0.90429,0.34571 -0.0336,0.22596 -0.0676,0.45119 -0.0957,0.67968 -0.28549,-0.0929 -0.57361,-0.17745 -0.85742,-0.27539 -0.24666,-0.0826 -0.49357,-0.15225 -0.74023,-0.21875 0.0167,-0.23907 0.0254,-0.48222 0.0469,-0.71875 z m -11.85547,0.0723 c 0.1332,0.58702 0.38873,1.56717 0.95899,3.36914 1.38047,4.08113 2.87774,7.00112 3.72851,7.26758 0.31106,0.0975 0.24734,-0.10812 -0.19336,-0.61719 -1.22101,-1.41124 -1.95489,-2.62617 -3.19726,-6.19922 l -1.11133,-3.78711 c -0.0757,0.003 -0.1388,-0.006 -0.18555,-0.0332 z m 15.67774,0.20312 c 0.21672,0.0404 0.42961,0.0766 0.64062,0.11133 -0.0299,0.20623 -0.0605,0.41527 -0.0898,0.64258 -0.2295,-0.0459 -0.45888,-0.0923 -0.68555,-0.14648 0.043,-0.20392 0.0885,-0.40576 0.13477,-0.60743 z m -6.26172,0.15235 c 0.0957,0.0267 0.1905,0.0509 0.33984,0.0742 0.005,0.23278 0.0195,0.46828 0.0312,0.70312 -0.15023,-0.0214 -0.23313,-0.0241 -0.32617,-0.0293 -0.0143,-0.24588 -0.028,-0.44064 -0.0449,-0.74804 z m 0.57812,0.11133 c 0.51953,0.0875 1.04087,0.19988 1.56446,0.33203 -0.0135,0.21376 -0.0156,0.43239 -0.0234,0.64844 -0.50855,-0.12242 -1.01684,-0.20432 -1.52539,-0.28126 -0.01,-0.23488 -0.0105,-0.46638 -0.0156,-0.69921 z m 3.70899,0.0703 c 0.59255,0.2009 1.1038,0.32723 1.58789,0.42773 -0.0485,0.23019 -0.0977,0.46015 -0.14063,0.69336 -0.51953,-0.13151 -1.02983,-0.29067 -1.53906,-0.45312 0.0273,-0.22459 0.0603,-0.44588 0.0918,-0.66797 z m -5.82032,0.26758 c -0.0816,-0.008 -0.18983,0.0196 -0.20117,0.0234 l -2.10156,1.01954 c -0.23206,0.13266 -0.26909,0.10921 -0.42383,0.24414 -0.15458,0.13682 -0.0114,0.16173 0.12696,0.16211 0.26416,6.4e-4 2.29504,-1.01883 2.63671,-1.27735 0.0994,-0.12623 0.0449,-0.16387 -0.0371,-0.16992 z m 3.91016,0.0547 c 0.22434,0.0596 0.44671,0.10116 0.67188,0.16993 0.32835,0.13902 0.62159,0.24548 0.91015,0.34765 -0.0222,0.19558 -0.0333,0.39599 -0.0508,0.59375 -0.27242,-0.0858 -0.54753,-0.16342 -0.81836,-0.2539 -0.25115,-0.0814 -0.50275,-0.15016 -0.75391,-0.21485 0.01,-0.21655 0.0274,-0.42816 0.041,-0.64258 z m 3.71289,0.15235 c 0.2384,0.0463 0.46914,0.0847 0.69922,0.12305 -0.0286,0.22624 -0.0625,0.50047 -0.0918,0.74218 -0.24602,-0.049 -0.49169,-0.0998 -0.73437,-0.1582 0.0432,-0.23516 0.0794,-0.47492 0.12695,-0.70703 z m -6.0332,0.26367 c 0.0911,0.007 0.18116,0.0117 0.32422,0.0332 0.0104,0.18065 0.0142,0.35898 0.0293,0.54102 0.007,0.0799 0.0105,0.16028 0.0176,0.24023 -0.14637,-0.0208 -0.23041,-0.0373 -0.32617,-0.0547 -0.0102,-0.12388 -0.0311,-0.52924 -0.0449,-0.75977 z m 0.54297,0.0664 c 0.50192,0.0809 1.00586,0.18573 1.51172,0.30859 -0.004,0.14889 -0.0146,0.2952 -0.0156,0.44531 8e-5,0.0977 -0.004,0.19531 -0.004,0.29297 -0.48076,-0.11476 -0.9626,-0.19303 -1.44336,-0.26562 -0.0155,-0.11595 -0.0216,-0.20986 -0.0391,-0.33008 -0.009,-0.15282 -0.002,-0.29925 -0.01,-0.45117 z m 3.5664,0.11523 h 0.002 c 0.56834,0.19209 1.06007,0.31162 1.52734,0.41016 -0.0332,0.18955 -0.0571,0.38427 -0.0859,0.57617 -0.50461,-0.12323 -1.00554,-0.25743 -1.5,-0.41016 0.0186,-0.19232 0.0349,-0.38572 0.0566,-0.57617 z m -11.13867,0.0371 -1.42773,0.56445 0.12109,0.13672 1.42188,-0.54883 z m 5.45899,0.0977 -1.30664,0.65039 c -0.61599,0.29518 -1.18063,0.58853 -1.25391,0.65429 v 0.002 c -0.0673,0.16932 -0.015,0.20936 0.0625,0.2207 0.28233,-0.22639 2.16708,-0.99679 2.58203,-1.34375 z m 3.83593,0.11132 c 0.22876,0.0583 0.45589,0.10007 0.68555,0.16797 0.31733,0.1301 0.60221,0.22882 0.88086,0.32422 -0.0109,0.13923 -0.0288,0.27558 -0.0371,0.41602 -0.005,0.0945 -0.0144,0.18872 -0.0195,0.2832 -0.26456,-0.0831 -0.53194,-0.15846 -0.79492,-0.24609 -0.24306,-0.0786 -0.48546,-0.14476 -0.72852,-0.20703 -0.006,-0.13461 -0.002,-0.24425 -0.01,-0.38477 0.003,-0.1202 0.0188,-0.23398 0.0234,-0.35352 z m -9.09375,0.19532 -1.42773,0.56445 0.12109,0.13672 1.41992,-0.55078 z m 12.69922,0.0215 c 0.25516,0.0499 0.50234,0.0919 0.74805,0.13281 -0.0247,0.20424 -0.0503,0.40702 -0.0762,0.61914 -0.26093,-0.0528 -0.51702,-0.11958 -0.77539,-0.17968 0.0309,-0.19319 0.0696,-0.38117 0.10351,-0.57227 z m 2.1543,0.28125 -0.0801,0.17188 3.99805,0.58789 0.0879,-0.15821 z m -7.9707,0.002 c 0.0943,0.0183 0.18643,0.0334 0.32812,0.0547 0.0203,0.2347 0.0325,0.47017 0.0508,0.70508 -0.10919,-0.0172 -0.18546,-0.0264 -0.26172,-0.0371 -0.022,-0.12265 -0.10074,-0.50715 -0.10742,-0.56055 -0.002,-0.0142 -0.008,-0.14173 -0.01,-0.16211 z m 3.9746,0.0645 c 0.56497,0.18476 1.03186,0.28419 1.49415,0.37695 -0.0222,0.15685 -0.0514,0.31014 -0.0703,0.46875 -0.009,0.0783 -0.0223,0.15609 -0.0312,0.23438 -0.48208,-0.11668 -0.96127,-0.24174 -1.43359,-0.38672 10e-4,-0.1321 0.01,-0.23907 0.01,-0.37696 0.008,-0.10663 0.0218,-0.21036 0.0312,-0.3164 z m -3.41796,0.0254 c 0.47159,0.0762 0.9447,0.17431 1.41992,0.28906 -8.7e-4,0.23117 -0.009,0.46215 -0.0117,0.69336 -0.44201,-0.11631 -0.88417,-0.1945 -1.32617,-0.26953 -0.0232,-0.22789 -0.0507,-0.46714 -0.082,-0.71289 z m -7.27539,0.0312 -1.42774,0.56445 0.12109,0.13477 1.41993,-0.54883 z m 8.92187,0.3125 c 0.21517,0.0549 0.42853,0.0945 0.64453,0.1582 0.30878,0.12624 0.58681,0.22429 0.85742,0.31641 -0.0134,0.23715 -0.0333,0.47385 -0.0488,0.71094 -0.25022,-0.0875 -0.5032,-0.16754 -0.75196,-0.25977 -0.22728,-0.0818 -0.45436,-0.15153 -0.68164,-0.2168 -0.002,-0.22484 -0.011,-0.46625 -0.0195,-0.70898 z m 3.47656,0.0488 c 0.2603,0.0487 0.53439,0.10857 0.78711,0.15039 -0.0316,0.25695 -0.0572,0.48184 -0.0918,0.74609 -0.2694,-0.0491 -0.52962,-0.12454 -0.79493,-0.18555 0.007,-0.10629 0.0191,-0.1907 0.0254,-0.30078 0.0198,-0.1401 0.0528,-0.27117 0.0742,-0.41015 z m 2.17578,0.0273 -0.0801,0.17188 3.99804,0.58593 0.0879,-0.15625 z m -7.70312,0.39453 c 0.0724,0.0114 0.14292,0.019 0.24023,0.0352 0.022,0.29293 0.0467,0.58549 0.0645,0.8789 -0.12439,-0.0186 -0.12691,-0.0225 -0.13477,-0.0273 -0.0671,-0.34147 -0.1283,-0.66195 -0.16992,-0.88672 z m 0.50781,0.082 c 0.43193,0.0787 0.86571,0.17887 1.30078,0.29492 -0.004,0.27226 -0.006,0.54408 -0.0137,0.81641 -0.40797,-0.10108 -0.81467,-0.17012 -1.22266,-0.23633 -0.0164,-0.28049 -0.0353,-0.56632 -0.0644,-0.875 z m 3.26758,0 c 0.53335,0.17163 0.97767,0.26291 1.41602,0.34961 -0.0298,0.25686 -0.0674,0.5129 -0.0996,0.76953 -0.44853,-0.12116 -0.89428,-0.25079 -1.33399,-0.40039 0.01,-0.22687 0.0131,-0.47327 0.0176,-0.71875 z m 3.77734,0.0664 -0.0781,0.17187 3.99805,0.58594 0.0879,-0.15625 z m -14.10937,0.18359 -1.42774,0.56446 0.1211,0.13476 1.42187,-0.54883 z m 8.63281,0.11719 c 0.20063,0.0572 0.40019,0.098 0.60156,0.16406 0.2923,0.13296 0.55382,0.23446 0.81055,0.33203 -0.0171,0.24881 -0.0324,0.49739 -0.0527,0.7461 -0.25056,-0.0819 -0.50294,-0.15761 -0.75196,-0.24414 -0.20816,-0.0702 -0.41684,-0.12895 -0.625,-0.18555 0.008,-0.26309 0.0182,-0.52392 0.0176,-0.8125 z m 3.33399,0.0254 c 0.24521,0.045 0.50743,0.10521 0.74414,0.14258 l 0.0625,-0.10352 c -0.0408,0.31041 -0.10209,0.62462 -0.14844,0.93946 -0.24606,-0.0505 -0.48392,-0.12596 -0.72656,-0.1875 0.0257,-0.25037 0.0481,-0.51734 0.0684,-0.79102 z m 2.01367,0.24414 -0.0781,0.17188 3.99805,0.58593 0.0879,-0.1582 z m -13.7793,0.0176 -1.42773,0.56445 0.11914,0.13477 1.42187,-0.54883 z m 10.10547,0.30859 c 0.49217,0.17447 0.90692,0.27296 1.31445,0.36328 -0.0309,0.24031 -0.0598,0.48068 -0.0937,0.72071 -0.4292,-0.1075 -0.85669,-0.22018 -1.27734,-0.35352 0.0202,-0.23938 0.0428,-0.46967 0.0566,-0.73047 z m -3.54688,0.008 c 0.0188,0.006 0.0257,0.01 0.11329,0.0234 0.0145,0.25428 0.0266,0.50893 0.0371,0.76368 -0.0713,-0.35957 -0.0879,-0.47009 -0.1504,-0.78711 z m 0.37891,0.0664 c 0.40199,0.0699 0.8061,0.15821 1.21094,0.25977 -0.009,0.28122 -0.0187,0.56242 -0.0332,0.84375 -0.38076,-0.0882 -0.76178,-0.16479 -1.14257,-0.22266 -0.004,-0.27647 -0.0196,-0.57887 -0.0352,-0.88086 z m -6.77344,0.041 -1.42773,0.56445 0.11914,0.13672 1.42187,-0.54883 z m 13.47657,0.17578 -0.0801,0.17187 3.99804,0.58789 0.0898,-0.1582 z m -5.23438,0.10937 c 0.18761,0.0503 0.37421,0.0847 0.5625,0.14258 0.29188,0.12448 0.55352,0.22238 0.80859,0.3125 -0.0221,0.25725 -0.0458,0.51438 -0.0723,0.77149 -0.21523,-0.0693 -0.43246,-0.13224 -0.64649,-0.20508 -0.23196,-0.0766 -0.46334,-0.12061 -0.69531,-0.17969 0.02,-0.26414 0.0315,-0.55356 0.043,-0.8418 z m 3.27539,0.0176 c 0.2247,0.0454 0.46612,0.10822 0.68359,0.14649 l 0.0488,-0.0937 c -0.13707,0.92285 -0.28541,1.84537 -0.49804,2.70507 -0.22267,-0.0474 -0.44178,-0.10593 -0.66211,-0.16015 0.0541,-0.24409 0.10445,-0.49939 0.15429,-0.76172 0.17789,0.0323 0.37176,0.0795 0.54493,0.10742 l 0.0684,-0.12109 c -0.19739,-0.036 -0.38742,-0.0945 -0.58204,-0.13867 0.0445,-0.24307 0.0817,-0.5182 0.1211,-0.78321 0.19797,0.0368 0.413,0.0894 0.60547,0.1211 l 0.0742,-0.13477 c -0.22177,-0.0413 -0.43571,-0.10715 -0.65429,-0.1582 0.0333,-0.23641 0.0674,-0.47062 0.0957,-0.72852 z m 1.88867,0.44531 -0.0801,0.17188 3.95313,0.52539 0.0898,-0.1582 z m -3.53906,0.0801 c 0.47531,0.15617 0.87751,0.24383 1.27148,0.32422 -0.0375,0.25858 -0.0734,0.51722 -0.11523,0.77539 -0.41458,-0.10139 -0.82641,-0.21116 -1.23242,-0.33789 0.0301,-0.23852 0.052,-0.5031 0.0762,-0.76172 z m -3.05859,0.15821 c 0.37641,0.0607 0.75373,0.1368 1.13281,0.22656 -0.0145,0.26229 -0.0268,0.5247 -0.0469,0.78711 -0.36295,-0.0772 -0.72493,-0.13791 -1.08789,-0.18946 0.006,-0.26215 0.004,-0.5444 0.002,-0.82421 z m -6.4336,0.0195 -1.42773,0.56445 0.12109,0.13672 1.42188,-0.55078 z m 7.8125,0.26757 c 0.21357,0.0543 0.42611,0.0955 0.64063,0.16016 0.25015,0.10443 0.47266,0.18417 0.69336,0.26172 -0.0262,0.24346 -0.0491,0.48716 -0.0801,0.73047 -0.13421,-0.0447 -0.27053,-0.0829 -0.4043,-0.12891 -0.30655,-0.10246 -0.61336,-0.16697 -0.91992,-0.23828 0.0278,-0.24944 0.0485,-0.51896 0.0703,-0.78516 z m 5.125,0.008 -0.0801,0.17187 3.89843,0.53516 0.0899,-0.1582 z m -12.73633,0.1289 -1.42773,0.56446 0.11914,0.13476 1.42188,-0.54883 z m 9.1875,0.3711 c 0.46377,0.15175 0.85179,0.23463 1.23243,0.31054 -0.0419,0.25212 -0.0819,0.50423 -0.12891,0.75586 -0.40607,-0.10613 -0.8088,-0.22198 -1.20703,-0.35156 0.037,-0.22819 0.0708,-0.47197 0.10351,-0.71484 z m -9.02343,0.0527 -1.42774,0.56445 0.11914,0.13672 1.42188,-0.54882 z m 12.49804,0.0215 -0.0801,0.17187 3.84375,0.53125 0.0898,-0.1582 z m -6.43554,0.0937 c 0.35822,0.0528 0.71743,0.1135 1.07812,0.19336 -0.0175,0.2165 -0.0387,0.43379 -0.0605,0.65039 -0.30252,-0.0596 -0.60556,-0.10288 -0.90821,-0.14454 -0.0397,-0.21227 -0.0679,-0.37019 -0.11328,-0.60546 9.3e-4,-0.0317 0.003,-0.062 0.004,-0.0937 z m 1.29883,0.25 c 0.29061,0.069 0.5806,0.13156 0.87304,0.2207 0.15988,0.0675 0.29651,0.11249 0.44336,0.16797 -0.0264,0.19998 -0.0597,0.39975 -0.0898,0.59961 -0.107,-0.0343 -0.21555,-0.0645 -0.32227,-0.0996 -0.32902,-0.10512 -0.6573,-0.17378 -0.98633,-0.24414 0.0279,-0.21303 0.0566,-0.42467 0.082,-0.64453 z m 5.06445,0.2539 -0.0801,0.17188 3.75,0.54883 0.0898,-0.15821 z m -3.53125,0.2168 c 0.44924,0.1598 0.83558,0.26297 1.19922,0.34375 -0.0366,0.1905 -0.0792,0.38013 -0.11914,0.57031 -0.39887,-0.10142 -0.7942,-0.21303 -1.18555,-0.33594 0.0351,-0.19193 0.0722,-0.38 0.10547,-0.57812 z m 3.40234,0.33594 -0.0801,0.17187 3.7168,0.59375 0.0898,-0.1582 z m -1.98047,0.0527 c 0.22305,0.0448 0.45024,0.0945 0.66602,0.13281 -0.052,0.20405 -0.11595,0.38915 -0.17383,0.58399 -0.2106,-0.0454 -0.41997,-0.0942 -0.6289,-0.14453 0.046,-0.18919 0.0922,-0.37626 0.13671,-0.57227 z"
       style="display:inline;opacity:1;vector-effect:none;fill:#616162;fill-opacity:1;stroke:none;stroke-width:0.31999999;stroke-linecap:butt;stroke-linejoin:miter;stroke-miterlimit:4;stroke-dasharray:none;stroke-dashoffset:0;stroke-opacity:1" /><path
       style="fill:#f8f1d7;fill-opacity:1;stroke:none;stroke-width:0.99999994px;stroke-linecap:butt;stroke-linejoin:miter;stroke-opacity:1"
       d="m 619.05664,728.89648 c -0.0136,0.21442 -0.031,0.42603 -0.041,0.64258 0.25116,0.0647 0.50276,0.13345 0.75391,0.21485 0.27083,0.0905 0.54594,0.1681 0.81836,0.2539 0.0175,-0.19776 0.0286,-0.39817 0.0508,-0.59375 -0.28856,-0.10217 -0.5818,-0.20863 -0.91015,-0.34765 -0.22517,-0.0688 -0.44754,-0.11033 -0.67188,-0.16993 z"
       transform="scale(0.26458333)"
       id="path3718"
       inkscape:connector-curvature="0"
       inkscape:label="orange" /><path
       style="fill:#ebeca1;fill-opacity:1;stroke:none;stroke-width:0.99999994px;stroke-linecap:butt;stroke-linejoin:miter;stroke-opacity:1"
       d="m 617.25391,726.72852 c -0.006,0.21727 -0.0195,0.43141 -0.0215,0.65039 0.56362,0.0855 1.12584,0.17683 1.68946,0.3164 0.0213,-0.20373 0.0532,-0.40319 0.0781,-0.60547 -0.58462,-0.148 -1.1665,-0.26862 -1.74609,-0.36132 z"
       transform="scale(0.26458333)"
       id="path3712"
       inkscape:connector-curvature="0"
       inkscape:label="yellow" /><path
       inkscape:connector-curvature="0"
       id="path3221"
       d="m 162.66447,193.95371 c -0.13988,-0.50689 -0.14183,-0.55038 -0.0263,-0.58889 0.0531,-0.0177 0.11799,0.10907 0.14812,0.28928 0.0295,0.17642 0.0771,0.4065 0.10589,0.51127 0.0289,0.1052 0.0144,0.1905 -0.0322,0.1905 -0.0465,0 -0.13443,-0.18097 -0.19547,-0.40216 z"
       style="display:inline;fill:#218f21;stroke-width:0.08466666"
       inkscape:label="green" /><path
       inkscape:connector-curvature="0"
       id="path3227"
       d="m 162.50287,194.46906 c -0.10611,-0.23139 -0.0911,-0.43226 -0.20126,-0.64538 0.0463,-0.0286 0.0882,-0.0701 0.12291,-0.0488 0.12358,0.0755 0.22998,0.52277 0.26279,0.66028 -0.11606,0.0585 -0.16428,0.0872 -0.18444,0.0339 z"
       style="display:inline;fill:#fe2e2e;stroke-width:0.08466666"
       sodipodi:nodetypes="ccscc"
       inkscape:label="red" /><path
       inkscape:label="blue"
       sodipodi:nodetypes="ccsccczcccccsccccccccsccsccccscccc"
       style="display:inline;fill:#2e51a8;stroke-width:0.08466666"
       d="m 165.0721,192.24716 c 0.11577,0.0167 0.70155,0.0255 0.88925,0.008 0.29837,-0.0217 1.00383,0.23252 1.24429,0.39042 0.0395,0.026 0.0216,0.15484 0.0212,0.18099 -0.0511,0.18658 -0.12311,0.12376 -0.47112,-0.0651 -0.17463,-0.0876 -0.58023,-0.18528 -0.90134,-0.21701 -0.3211,-0.0317 -0.66675,-0.0217 -0.73477,-0.0379 -0.068,-0.0162 -0.13557,5.4e-4 -0.0475,-0.25905 z m -4.43342,0.29225 c 0,-0.0999 -0.0618,-0.16543 -0.006,-0.22131 0.20363,-0.0637 0.29492,0.0258 0.57742,-0.17089 0.47957,-0.32451 1.07497,-0.58353 1.49778,-0.58535 0.34961,0 0.42224,0.0139 0.42224,0.10294 0,0.066 -0.029,0.153 -0.029,0.153 -0.0793,0.10437 -0.26688,0.0348 -0.43805,0.0683 -0.33023,0 -0.61963,0.10946 -0.91305,0.34359 -0.15568,0.12422 -0.26659,0.15663 -0.5092,0.23876 -0.44106,0.14931 -0.60233,0.25267 -0.60233,0.071 z m 3.62077,-1.17593 c -0.28458,-0.19709 -0.19911,-0.006 -0.78444,-0.017 -0.88366,-0.0172 -0.889,-0.0182 -0.889,-0.16053 0,-0.0952 0.12051,-0.11835 0.55038,-0.10584 0.30271,0.009 0.4036,-0.002 0.55033,-0.0475 0.062,-0.0266 0.17179,-0.0439 0.26948,-0.048 0.22225,-0.009 0.42781,0.0952 0.60128,0.27927 0.0961,0.0952 0.2389,0.31165 0.28835,0.28548 0.0348,0.0267 0.26569,-0.16317 0.39854,-0.24475 0.2255,-0.1511 0.43624,-0.23203 0.47979,-0.20512 0.0763,0.17481 0.0942,0.16525 0.0388,0.21343 -0.0555,0.0482 -0.18423,0.15408 -0.41773,0.29118 -0.41995,0.20046 -0.53647,0.39532 -1.08572,-0.24064 z"
       id="path3703"
       inkscape:connector-curvature="0" /></g></g></svg>